# xmcd
#
# Track frame offsets:
#   195
#   22920
#   58090
#   81252
#   86095
#   103185
#   132945
#   141930
#   163627
#   195372
#   232850
#   236332
#   262370
#   286957
#
# Disc length: 3964 seconds
#
# Revision: 0
# Processed by: cddbd v1.4PL0 Copyright (c) Steve Scherf et al.
# Submitted via: uFREEDB ActiveX Control (MinMusik) 1.4 (0.9)
#
DISCID=bf0f7a0e
DTITLE=Sandra Crouch and Friends - With All Of My Heart
DYEAR=1992
DGENRE=Gospel and Religious
TTITLE0=I Feel Like Praising Him
TTITLE1=Oh Give Thanks
TTITLE2=Abide In Me
TTITLE3=Abide In Me (Reprise)
TTITLE4=Anything
TTITLE5=With All Of My Heart
TTITLE6=God's Got It
TTITLE7=To The Saints
TTITLE8=The Heaven Medley: Well Done - When We Gather Arou
TTITLE9=Just When You Need Him Most
TTITLE10=Call Him, He'll Come (Reprise)
TTITLE11=It's The Lord That Satisfies
TTITLE12=God Is Moving
TTITLE13=Prayer By Bishop B. J. Crouch - He Is The Light Of
EXTD=
EXTT0=
EXTT1=
EXTT2=
EXTT3=
EXTT4=
EXTT5=
EXTT6=
EXTT7=
EXTT8=
EXTT9=
EXTT10=
EXTT11=
EXTT12=
EXTT13=
PLAYORDER=
